<mxfile host="app.diagrams.net" modified="2024-04-06T12:07:19.799Z" agent="Mozilla/5.0 (Windows NT 10.0; Win64; x64) AppleWebKit/537.36 (KHTML, like Gecko) Chrome/123.0.0.0 Safari/537.36" etag="IHSaw-6-16SQkVkciQKQ" version="24.2.1" type="github" pages="2">
  <diagram name="Page-1" id="FmOOrGXnYZ2-rbaZrMzB">
    <mxGraphModel dx="1358" dy="1727" grid="1" gridSize="10" guides="1" tooltips="1" connect="1" arrows="1" fold="1" page="1" pageScale="1" pageWidth="827" pageHeight="1169" math="0" shadow="0">
      <root>
        <mxCell id="0" />
        <mxCell id="1" parent="0" />
        <mxCell id="srm6mXE7PmyXqJPck2NN-1" value="&lt;font style=&quot;font-size: 20px;&quot;&gt;Assigment 8&amp;nbsp;&lt;br&gt;Waiter Restaurant App&lt;/font&gt;" style="text;html=1;align=center;verticalAlign=middle;whiteSpace=wrap;rounded=0;" vertex="1" parent="1">
          <mxGeometry x="245" y="10" width="170" height="50" as="geometry" />
        </mxCell>
        <mxCell id="srm6mXE7PmyXqJPck2NN-2" value="&lt;font style=&quot;font-size: 17px;&quot;&gt;FlowChart&lt;/font&gt;" style="rounded=1;whiteSpace=wrap;html=1;" vertex="1" parent="1">
          <mxGeometry x="270" y="90" width="120" height="40" as="geometry" />
        </mxCell>
        <mxCell id="6vo37v2dOfPr7N9Fx7gi-5" value="" style="edgeStyle=orthogonalEdgeStyle;rounded=0;orthogonalLoop=1;jettySize=auto;html=1;exitX=0.5;exitY=1;exitDx=0;exitDy=0;entryX=0.5;entryY=0;entryDx=0;entryDy=0;" edge="1" parent="1" source="srm6mXE7PmyXqJPck2NN-2" target="6vo37v2dOfPr7N9Fx7gi-1">
          <mxGeometry relative="1" as="geometry">
            <mxPoint x="340" y="150" as="targetPoint" />
            <Array as="points" />
          </mxGeometry>
        </mxCell>
        <mxCell id="6vo37v2dOfPr7N9Fx7gi-12" style="edgeStyle=orthogonalEdgeStyle;rounded=0;orthogonalLoop=1;jettySize=auto;html=1;exitX=0.5;exitY=1;exitDx=0;exitDy=0;" edge="1" parent="1" source="6vo37v2dOfPr7N9Fx7gi-1" target="6vo37v2dOfPr7N9Fx7gi-9">
          <mxGeometry relative="1" as="geometry" />
        </mxCell>
        <mxCell id="6vo37v2dOfPr7N9Fx7gi-1" value="Username&lt;br&gt;Password" style="rounded=1;whiteSpace=wrap;html=1;" vertex="1" parent="1">
          <mxGeometry x="270" y="170" width="120" height="60" as="geometry" />
        </mxCell>
        <mxCell id="KyoOVC5WlseyV3YeljR9-1" style="edgeStyle=orthogonalEdgeStyle;rounded=0;orthogonalLoop=1;jettySize=auto;html=1;" edge="1" parent="1" source="6vo37v2dOfPr7N9Fx7gi-2" target="KyoOVC5WlseyV3YeljR9-2">
          <mxGeometry relative="1" as="geometry">
            <mxPoint x="490" y="440" as="targetPoint" />
          </mxGeometry>
        </mxCell>
        <mxCell id="6vo37v2dOfPr7N9Fx7gi-2" value="Table №" style="rounded=1;whiteSpace=wrap;html=1;" vertex="1" parent="1">
          <mxGeometry x="430" y="320" width="120" height="60" as="geometry" />
        </mxCell>
        <mxCell id="6vo37v2dOfPr7N9Fx7gi-10" style="edgeStyle=orthogonalEdgeStyle;rounded=0;orthogonalLoop=1;jettySize=auto;html=1;entryX=0.5;entryY=0;entryDx=0;entryDy=0;" edge="1" parent="1" source="6vo37v2dOfPr7N9Fx7gi-9" target="6vo37v2dOfPr7N9Fx7gi-2">
          <mxGeometry relative="1" as="geometry">
            <mxPoint x="520" y="270" as="targetPoint" />
          </mxGeometry>
        </mxCell>
        <mxCell id="6vo37v2dOfPr7N9Fx7gi-14" value="" style="edgeStyle=orthogonalEdgeStyle;rounded=0;orthogonalLoop=1;jettySize=auto;html=1;entryX=0.343;entryY=-0.037;entryDx=0;entryDy=0;entryPerimeter=0;" edge="1" parent="1" source="6vo37v2dOfPr7N9Fx7gi-9">
          <mxGeometry relative="1" as="geometry">
            <mxPoint x="201.16000000000008" y="317.78" as="targetPoint" />
            <Array as="points">
              <mxPoint x="201" y="280" />
            </Array>
          </mxGeometry>
        </mxCell>
        <mxCell id="6vo37v2dOfPr7N9Fx7gi-9" value="&lt;font style=&quot;font-size: 14px;&quot;&gt;User Exists&lt;/font&gt;" style="text;html=1;align=center;verticalAlign=middle;whiteSpace=wrap;rounded=0;fillColor=#e1d5e7;strokeColor=#9673a6;" vertex="1" parent="1">
          <mxGeometry x="287.5" y="260" width="85" height="40" as="geometry" />
        </mxCell>
        <mxCell id="6vo37v2dOfPr7N9Fx7gi-11" value="&lt;font style=&quot;font-size: 13px;&quot;&gt;YES&lt;/font&gt;" style="text;html=1;align=center;verticalAlign=middle;resizable=0;points=[];autosize=1;strokeColor=#82b366;fillColor=#d5e8d4;" vertex="1" parent="1">
          <mxGeometry x="415" y="238" width="50" height="30" as="geometry" />
        </mxCell>
        <mxCell id="6vo37v2dOfPr7N9Fx7gi-16" value="&lt;font style=&quot;font-size: 13px;&quot;&gt;NO&lt;/font&gt;" style="text;html=1;align=center;verticalAlign=middle;resizable=0;points=[];autosize=1;strokeColor=#b85450;fillColor=#f8cecc;" vertex="1" parent="1">
          <mxGeometry x="215" y="238" width="40" height="30" as="geometry" />
        </mxCell>
        <mxCell id="6vo37v2dOfPr7N9Fx7gi-19" style="edgeStyle=orthogonalEdgeStyle;rounded=0;orthogonalLoop=1;jettySize=auto;html=1;entryX=0;entryY=0.5;entryDx=0;entryDy=0;exitX=0;exitY=0.5;exitDx=0;exitDy=0;" edge="1" parent="1" source="6vo37v2dOfPr7N9Fx7gi-18" target="6vo37v2dOfPr7N9Fx7gi-1">
          <mxGeometry relative="1" as="geometry">
            <mxPoint x="130" y="170" as="targetPoint" />
            <mxPoint x="120" y="310" as="sourcePoint" />
            <Array as="points">
              <mxPoint x="120" y="350" />
              <mxPoint x="120" y="200" />
            </Array>
          </mxGeometry>
        </mxCell>
        <mxCell id="6vo37v2dOfPr7N9Fx7gi-18" value="401 Error&lt;br&gt;Retry" style="rounded=1;whiteSpace=wrap;html=1;" vertex="1" parent="1">
          <mxGeometry x="150" y="320" width="120" height="60" as="geometry" />
        </mxCell>
        <mxCell id="uQS85lq3L_8QzovgYOfv-114" value="" style="edgeStyle=orthogonalEdgeStyle;rounded=0;orthogonalLoop=1;jettySize=auto;html=1;" edge="1" parent="1" source="KyoOVC5WlseyV3YeljR9-2" target="uQS85lq3L_8QzovgYOfv-109">
          <mxGeometry relative="1" as="geometry" />
        </mxCell>
        <mxCell id="KyoOVC5WlseyV3YeljR9-2" value="Dashboard" style="rounded=1;whiteSpace=wrap;html=1;" vertex="1" parent="1">
          <mxGeometry x="430" y="430" width="120" height="60" as="geometry" />
        </mxCell>
        <mxCell id="uQS85lq3L_8QzovgYOfv-86" value="" style="rounded=1;whiteSpace=wrap;html=1;" vertex="1" parent="1">
          <mxGeometry x="144" y="510" width="540" height="270" as="geometry" />
        </mxCell>
        <mxCell id="uQS85lq3L_8QzovgYOfv-87" value="&lt;font style=&quot;font-size: 15px;&quot;&gt;Categories&lt;/font&gt;" style="text;html=1;align=center;verticalAlign=middle;whiteSpace=wrap;rounded=0;" vertex="1" parent="1">
          <mxGeometry x="164" y="560" width="60" height="30" as="geometry" />
        </mxCell>
        <mxCell id="uQS85lq3L_8QzovgYOfv-88" value="Закуски" style="text;html=1;align=center;verticalAlign=middle;whiteSpace=wrap;rounded=0;" vertex="1" parent="1">
          <mxGeometry x="164" y="580" width="60" height="30" as="geometry" />
        </mxCell>
        <mxCell id="uQS85lq3L_8QzovgYOfv-89" value="Салаты&lt;div&gt;&lt;br&gt;&lt;/div&gt;" style="text;html=1;align=center;verticalAlign=middle;whiteSpace=wrap;rounded=0;" vertex="1" parent="1">
          <mxGeometry x="164" y="610" width="60" height="30" as="geometry" />
        </mxCell>
        <mxCell id="uQS85lq3L_8QzovgYOfv-90" value="Супы" style="text;html=1;align=center;verticalAlign=middle;whiteSpace=wrap;rounded=0;" vertex="1" parent="1">
          <mxGeometry x="164" y="630" width="60" height="30" as="geometry" />
        </mxCell>
        <mxCell id="uQS85lq3L_8QzovgYOfv-91" value="Главные блюда" style="text;html=1;align=center;verticalAlign=middle;whiteSpace=wrap;rounded=0;" vertex="1" parent="1">
          <mxGeometry x="164" y="660" width="60" height="30" as="geometry" />
        </mxCell>
        <mxCell id="uQS85lq3L_8QzovgYOfv-92" value="Шашлыки" style="text;html=1;align=center;verticalAlign=middle;whiteSpace=wrap;rounded=0;" vertex="1" parent="1">
          <mxGeometry x="164" y="690" width="60" height="30" as="geometry" />
        </mxCell>
        <mxCell id="uQS85lq3L_8QzovgYOfv-93" value="Хлеб" style="text;html=1;align=center;verticalAlign=middle;whiteSpace=wrap;rounded=0;" vertex="1" parent="1">
          <mxGeometry x="164" y="710" width="60" height="30" as="geometry" />
        </mxCell>
        <mxCell id="uQS85lq3L_8QzovgYOfv-94" value="&lt;font style=&quot;font-size: 13px;&quot;&gt;Напытки&lt;/font&gt;" style="text;html=1;align=center;verticalAlign=middle;whiteSpace=wrap;rounded=0;" vertex="1" parent="1">
          <mxGeometry x="164" y="740" width="60" height="20" as="geometry" />
        </mxCell>
        <mxCell id="uQS85lq3L_8QzovgYOfv-95" value="" style="rounded=1;whiteSpace=wrap;html=1;" vertex="1" parent="1">
          <mxGeometry x="264" y="570" width="60" height="30" as="geometry" />
        </mxCell>
        <mxCell id="uQS85lq3L_8QzovgYOfv-96" value="" style="rounded=1;whiteSpace=wrap;html=1;" vertex="1" parent="1">
          <mxGeometry x="339" y="620" width="60" height="30" as="geometry" />
        </mxCell>
        <mxCell id="uQS85lq3L_8QzovgYOfv-97" value="" style="rounded=1;whiteSpace=wrap;html=1;" vertex="1" parent="1">
          <mxGeometry x="414" y="620" width="60" height="30" as="geometry" />
        </mxCell>
        <mxCell id="uQS85lq3L_8QzovgYOfv-98" value="" style="rounded=1;whiteSpace=wrap;html=1;" vertex="1" parent="1">
          <mxGeometry x="494" y="620" width="60" height="30" as="geometry" />
        </mxCell>
        <mxCell id="uQS85lq3L_8QzovgYOfv-99" value="" style="rounded=1;whiteSpace=wrap;html=1;" vertex="1" parent="1">
          <mxGeometry x="494" y="570" width="60" height="30" as="geometry" />
        </mxCell>
        <mxCell id="uQS85lq3L_8QzovgYOfv-100" value="" style="rounded=1;whiteSpace=wrap;html=1;" vertex="1" parent="1">
          <mxGeometry x="414" y="570" width="60" height="30" as="geometry" />
        </mxCell>
        <mxCell id="uQS85lq3L_8QzovgYOfv-101" value="" style="rounded=1;whiteSpace=wrap;html=1;" vertex="1" parent="1">
          <mxGeometry x="339" y="570" width="60" height="30" as="geometry" />
        </mxCell>
        <mxCell id="uQS85lq3L_8QzovgYOfv-102" value="" style="rounded=1;whiteSpace=wrap;html=1;" vertex="1" parent="1">
          <mxGeometry x="264" y="620" width="60" height="30" as="geometry" />
        </mxCell>
        <mxCell id="uQS85lq3L_8QzovgYOfv-103" value="" style="rounded=1;whiteSpace=wrap;html=1;" vertex="1" parent="1">
          <mxGeometry x="339" y="660" width="60" height="30" as="geometry" />
        </mxCell>
        <mxCell id="uQS85lq3L_8QzovgYOfv-104" value="" style="rounded=1;whiteSpace=wrap;html=1;" vertex="1" parent="1">
          <mxGeometry x="494" y="660" width="60" height="30" as="geometry" />
        </mxCell>
        <mxCell id="uQS85lq3L_8QzovgYOfv-105" value="" style="rounded=1;whiteSpace=wrap;html=1;" vertex="1" parent="1">
          <mxGeometry x="414" y="660" width="60" height="30" as="geometry" />
        </mxCell>
        <mxCell id="uQS85lq3L_8QzovgYOfv-106" value="" style="rounded=1;whiteSpace=wrap;html=1;" vertex="1" parent="1">
          <mxGeometry x="264" y="660" width="60" height="30" as="geometry" />
        </mxCell>
        <mxCell id="uQS85lq3L_8QzovgYOfv-107" value="" style="html=1;verticalLabelPosition=bottom;align=center;labelBackgroundColor=#ffffff;verticalAlign=top;strokeWidth=2;strokeColor=#0080F0;shadow=0;dashed=0;shape=mxgraph.ios7.icons.shopping_cart;" vertex="1" parent="1">
          <mxGeometry x="604" y="534.5" width="30" height="25.5" as="geometry" />
        </mxCell>
        <mxCell id="uQS85lq3L_8QzovgYOfv-108" value="" style="endArrow=none;dashed=1;html=1;rounded=0;" edge="1" parent="1">
          <mxGeometry width="50" height="50" relative="1" as="geometry">
            <mxPoint x="584" y="760.7999755859375" as="sourcePoint" />
            <mxPoint x="586" y="529.2" as="targetPoint" />
          </mxGeometry>
        </mxCell>
        <mxCell id="uQS85lq3L_8QzovgYOfv-109" value="Logout" style="rounded=1;whiteSpace=wrap;html=1;fillColor=#e51400;strokeColor=#B20000;fontColor=#ffffff;" vertex="1" parent="1">
          <mxGeometry x="494" y="520" width="58" height="30" as="geometry" />
        </mxCell>
        <mxCell id="uQS85lq3L_8QzovgYOfv-110" value="" style="shape=mxgraph.signs.food.bar;html=1;pointerEvents=1;fillColor=#000000;strokeColor=none;verticalLabelPosition=bottom;verticalAlign=top;align=center;" vertex="1" parent="1">
          <mxGeometry x="224" y="745" width="20" height="15" as="geometry" />
        </mxCell>
        <mxCell id="uQS85lq3L_8QzovgYOfv-111" value="Logo" style="rounded=1;whiteSpace=wrap;html=1;fillColor=#008a00;strokeColor=#005700;fontColor=#ffffff;" vertex="1" parent="1">
          <mxGeometry x="164" y="520" width="60" height="25" as="geometry" />
        </mxCell>
        <mxCell id="uQS85lq3L_8QzovgYOfv-115" style="edgeStyle=orthogonalEdgeStyle;rounded=0;orthogonalLoop=1;jettySize=auto;html=1;" edge="1" parent="1" source="uQS85lq3L_8QzovgYOfv-112">
          <mxGeometry relative="1" as="geometry">
            <mxPoint x="634" y="840" as="targetPoint" />
          </mxGeometry>
        </mxCell>
        <mxCell id="uQS85lq3L_8QzovgYOfv-112" value="Закрыт" style="rounded=1;whiteSpace=wrap;html=1;fillColor=#6a00ff;fontColor=#ffffff;strokeColor=#3700CC;" vertex="1" parent="1">
          <mxGeometry x="604" y="720" width="60" height="30" as="geometry" />
        </mxCell>
        <mxCell id="uQS85lq3L_8QzovgYOfv-113" value="&lt;font style=&quot;font-size: 13px;&quot;&gt;Стул №&lt;/font&gt;" style="rounded=1;whiteSpace=wrap;html=1;fillColor=#d5e8d4;strokeColor=#82b366;" vertex="1" parent="1">
          <mxGeometry x="339" y="515" width="80" height="40" as="geometry" />
        </mxCell>
        <mxCell id="uQS85lq3L_8QzovgYOfv-116" value="&lt;font style=&quot;font-size: 13px;&quot;&gt;Total:&lt;/font&gt;" style="text;html=1;align=center;verticalAlign=middle;whiteSpace=wrap;rounded=0;" vertex="1" parent="1">
          <mxGeometry x="600" y="680" width="60" height="30" as="geometry" />
        </mxCell>
        <mxCell id="uQS85lq3L_8QzovgYOfv-117" value="НДС 12%" style="text;html=1;align=center;verticalAlign=middle;whiteSpace=wrap;rounded=0;" vertex="1" parent="1">
          <mxGeometry x="604" y="650" width="60" height="30" as="geometry" />
        </mxCell>
        <mxCell id="uQS85lq3L_8QzovgYOfv-120" value="Afsus" style="text;html=1;align=center;verticalAlign=middle;whiteSpace=wrap;rounded=0;" vertex="1" parent="1">
          <mxGeometry x="604" y="860" width="60" height="30" as="geometry" />
        </mxCell>
        <mxCell id="uQS85lq3L_8QzovgYOfv-123" value="&lt;span style=&quot;color: rgba(0, 0, 0, 0); font-family: monospace; font-size: 0px; text-align: start; text-wrap: nowrap;&quot;&gt;%3CmxGraphModel%3E%3Croot%3E%3CmxCell%20id%3D%220%22%2F%3E%3CmxCell%20id%3D%221%22%20parent%3D%220%22%2F%3E%3CmxCell%20id%3D%222%22%20value%3D%22%22%20style%3D%22endArrow%3Dnone%3Bdashed%3D1%3Bhtml%3D1%3Brounded%3D0%3B%22%20edge%3D%221%22%20parent%3D%221%22%3E%3CmxGeometry%20width%3D%2250%22%20height%3D%2250%22%20relative%3D%221%22%20as%3D%22geometry%22%3E%3CmxPoint%20x%3D%22330%22%20y%3D%221000%22%20as%3D%22sourcePoint%22%2F%3E%3CmxPoint%20x%3D%22520%22%20y%3D%221000%22%20as%3D%22targetPoint%22%2F%3E%3C%2FmxGeometry%3E%3C%2FmxCell%3E%3C%2Froot%3E%3C%2FmxGraphModel%3E&lt;/span&gt;" style="rounded=0;whiteSpace=wrap;html=1;" vertex="1" parent="1">
          <mxGeometry x="320" y="800" width="220" height="470" as="geometry" />
        </mxCell>
        <mxCell id="uQS85lq3L_8QzovgYOfv-124" value="Чек №&amp;nbsp;" style="text;html=1;align=center;verticalAlign=middle;whiteSpace=wrap;rounded=0;" vertex="1" parent="1">
          <mxGeometry x="330" y="840" width="60" height="30" as="geometry" />
        </mxCell>
        <mxCell id="uQS85lq3L_8QzovgYOfv-125" value="Стул №" style="text;html=1;align=center;verticalAlign=middle;whiteSpace=wrap;rounded=0;" vertex="1" parent="1">
          <mxGeometry x="390" y="840" width="60" height="30" as="geometry" />
        </mxCell>
        <mxCell id="uQS85lq3L_8QzovgYOfv-126" value="&lt;font style=&quot;font-size: 14px;&quot;&gt;Afsus&lt;/font&gt;" style="text;html=1;align=center;verticalAlign=middle;whiteSpace=wrap;rounded=0;" vertex="1" parent="1">
          <mxGeometry x="390" y="810" width="60" height="30" as="geometry" />
        </mxCell>
        <mxCell id="uQS85lq3L_8QzovgYOfv-127" value="Гостей" style="text;html=1;align=center;verticalAlign=middle;whiteSpace=wrap;rounded=0;" vertex="1" parent="1">
          <mxGeometry x="450" y="840" width="60" height="30" as="geometry" />
        </mxCell>
        <mxCell id="uQS85lq3L_8QzovgYOfv-128" value="04.04.2024" style="text;html=1;align=center;verticalAlign=middle;whiteSpace=wrap;rounded=0;" vertex="1" parent="1">
          <mxGeometry x="330" y="870" width="60" height="30" as="geometry" />
        </mxCell>
        <mxCell id="uQS85lq3L_8QzovgYOfv-129" value="Text" style="text;html=1;align=center;verticalAlign=middle;whiteSpace=wrap;rounded=0;" vertex="1" parent="1">
          <mxGeometry x="185" y="870" width="60" height="30" as="geometry" />
        </mxCell>
        <mxCell id="uQS85lq3L_8QzovgYOfv-131" value="&lt;font style=&quot;font-size: 12px;&quot;&gt;Открыт:&lt;/font&gt;" style="text;html=1;align=center;verticalAlign=middle;whiteSpace=wrap;rounded=0;" vertex="1" parent="1">
          <mxGeometry x="400" y="870" width="60" height="30" as="geometry" />
        </mxCell>
        <mxCell id="uQS85lq3L_8QzovgYOfv-132" value="&lt;font style=&quot;font-size: 12px;&quot;&gt;Закрыт:&lt;/font&gt;" style="text;html=1;align=center;verticalAlign=middle;whiteSpace=wrap;rounded=0;" vertex="1" parent="1">
          <mxGeometry x="450" y="870" width="60" height="30" as="geometry" />
        </mxCell>
        <mxCell id="uQS85lq3L_8QzovgYOfv-133" value="Кассир:" style="text;html=1;align=center;verticalAlign=middle;whiteSpace=wrap;rounded=0;" vertex="1" parent="1">
          <mxGeometry x="324" y="900" width="60" height="30" as="geometry" />
        </mxCell>
        <mxCell id="uQS85lq3L_8QzovgYOfv-134" value="Официант:" style="text;html=1;align=center;verticalAlign=middle;whiteSpace=wrap;rounded=0;" vertex="1" parent="1">
          <mxGeometry x="330" y="920" width="60" height="30" as="geometry" />
        </mxCell>
        <mxCell id="uQS85lq3L_8QzovgYOfv-135" value="Блюдо" style="text;html=1;align=center;verticalAlign=middle;whiteSpace=wrap;rounded=0;" vertex="1" parent="1">
          <mxGeometry x="320" y="960" width="60" height="30" as="geometry" />
        </mxCell>
        <mxCell id="uQS85lq3L_8QzovgYOfv-136" value="Кол-во" style="text;html=1;align=center;verticalAlign=middle;whiteSpace=wrap;rounded=0;" vertex="1" parent="1">
          <mxGeometry x="390" y="960" width="60" height="30" as="geometry" />
        </mxCell>
        <mxCell id="uQS85lq3L_8QzovgYOfv-137" value="Сумма" style="text;html=1;align=center;verticalAlign=middle;whiteSpace=wrap;rounded=0;" vertex="1" parent="1">
          <mxGeometry x="465" y="960" width="60" height="30" as="geometry" />
        </mxCell>
        <mxCell id="uQS85lq3L_8QzovgYOfv-139" value="" style="endArrow=none;dashed=1;html=1;rounded=0;" edge="1" parent="1">
          <mxGeometry width="50" height="50" relative="1" as="geometry">
            <mxPoint x="330" y="1000" as="sourcePoint" />
            <mxPoint x="520" y="1000" as="targetPoint" />
          </mxGeometry>
        </mxCell>
        <mxCell id="uQS85lq3L_8QzovgYOfv-140" value="Сомса&amp;nbsp;" style="text;html=1;align=center;verticalAlign=middle;whiteSpace=wrap;rounded=0;" vertex="1" parent="1">
          <mxGeometry x="324" y="1010" width="60" height="30" as="geometry" />
        </mxCell>
        <mxCell id="uQS85lq3L_8QzovgYOfv-141" value="1.00" style="text;html=1;align=center;verticalAlign=middle;whiteSpace=wrap;rounded=0;" vertex="1" parent="1">
          <mxGeometry x="390" y="1010" width="60" height="30" as="geometry" />
        </mxCell>
        <mxCell id="uQS85lq3L_8QzovgYOfv-142" value="8500.00" style="text;html=1;align=center;verticalAlign=middle;whiteSpace=wrap;rounded=0;" vertex="1" parent="1">
          <mxGeometry x="460" y="1010" width="60" height="30" as="geometry" />
        </mxCell>
        <mxCell id="uQS85lq3L_8QzovgYOfv-143" value="Сомса&amp;nbsp;" style="text;html=1;align=center;verticalAlign=middle;whiteSpace=wrap;rounded=0;" vertex="1" parent="1">
          <mxGeometry x="324" y="1030" width="60" height="30" as="geometry" />
        </mxCell>
        <mxCell id="uQS85lq3L_8QzovgYOfv-144" value="Сомса&amp;nbsp;" style="text;html=1;align=center;verticalAlign=middle;whiteSpace=wrap;rounded=0;" vertex="1" parent="1">
          <mxGeometry x="324" y="1050" width="60" height="30" as="geometry" />
        </mxCell>
        <mxCell id="uQS85lq3L_8QzovgYOfv-145" value="Сомса&amp;nbsp;" style="text;html=1;align=center;verticalAlign=middle;whiteSpace=wrap;rounded=0;" vertex="1" parent="1">
          <mxGeometry x="324" y="1090" width="60" height="30" as="geometry" />
        </mxCell>
        <mxCell id="uQS85lq3L_8QzovgYOfv-146" value="Сомса&amp;nbsp;" style="text;html=1;align=center;verticalAlign=middle;whiteSpace=wrap;rounded=0;" vertex="1" parent="1">
          <mxGeometry x="324" y="1070" width="60" height="30" as="geometry" />
        </mxCell>
        <mxCell id="uQS85lq3L_8QzovgYOfv-147" value="1.00" style="text;html=1;align=center;verticalAlign=middle;whiteSpace=wrap;rounded=0;" vertex="1" parent="1">
          <mxGeometry x="390" y="1030" width="60" height="30" as="geometry" />
        </mxCell>
        <mxCell id="uQS85lq3L_8QzovgYOfv-148" value="1.00" style="text;html=1;align=center;verticalAlign=middle;whiteSpace=wrap;rounded=0;" vertex="1" parent="1">
          <mxGeometry x="390" y="1050" width="60" height="30" as="geometry" />
        </mxCell>
        <mxCell id="uQS85lq3L_8QzovgYOfv-149" value="1.00" style="text;html=1;align=center;verticalAlign=middle;whiteSpace=wrap;rounded=0;" vertex="1" parent="1">
          <mxGeometry x="390" y="1070" width="60" height="30" as="geometry" />
        </mxCell>
        <mxCell id="uQS85lq3L_8QzovgYOfv-150" value="1.00" style="text;html=1;align=center;verticalAlign=middle;whiteSpace=wrap;rounded=0;" vertex="1" parent="1">
          <mxGeometry x="390" y="1090" width="60" height="30" as="geometry" />
        </mxCell>
        <mxCell id="uQS85lq3L_8QzovgYOfv-151" value="8500.00" style="text;html=1;align=center;verticalAlign=middle;whiteSpace=wrap;rounded=0;" vertex="1" parent="1">
          <mxGeometry x="460" y="1030" width="60" height="30" as="geometry" />
        </mxCell>
        <mxCell id="uQS85lq3L_8QzovgYOfv-152" value="8500.00" style="text;html=1;align=center;verticalAlign=middle;whiteSpace=wrap;rounded=0;" vertex="1" parent="1">
          <mxGeometry x="460" y="1050" width="60" height="30" as="geometry" />
        </mxCell>
        <mxCell id="uQS85lq3L_8QzovgYOfv-153" value="8500.00" style="text;html=1;align=center;verticalAlign=middle;whiteSpace=wrap;rounded=0;" vertex="1" parent="1">
          <mxGeometry x="460" y="1070" width="60" height="30" as="geometry" />
        </mxCell>
        <mxCell id="uQS85lq3L_8QzovgYOfv-154" value="8500.00" style="text;html=1;align=center;verticalAlign=middle;whiteSpace=wrap;rounded=0;" vertex="1" parent="1">
          <mxGeometry x="460" y="1090" width="60" height="30" as="geometry" />
        </mxCell>
        <mxCell id="uQS85lq3L_8QzovgYOfv-156" value="Всего:" style="text;html=1;align=center;verticalAlign=middle;whiteSpace=wrap;rounded=0;" vertex="1" parent="1">
          <mxGeometry x="324" y="1130" width="60" height="30" as="geometry" />
        </mxCell>
        <mxCell id="uQS85lq3L_8QzovgYOfv-157" value="" style="endArrow=none;dashed=1;html=1;rounded=0;" edge="1" parent="1">
          <mxGeometry width="50" height="50" relative="1" as="geometry">
            <mxPoint x="330" y="1120" as="sourcePoint" />
            <mxPoint x="520" y="1120" as="targetPoint" />
          </mxGeometry>
        </mxCell>
        <mxCell id="uQS85lq3L_8QzovgYOfv-159" value="99000.00" style="text;html=1;align=center;verticalAlign=middle;whiteSpace=wrap;rounded=0;" vertex="1" parent="1">
          <mxGeometry x="460" y="1130" width="60" height="30" as="geometry" />
        </mxCell>
        <mxCell id="uQS85lq3L_8QzovgYOfv-160" value="" style="endArrow=none;dashed=1;html=1;rounded=0;" edge="1" parent="1">
          <mxGeometry width="50" height="50" relative="1" as="geometry">
            <mxPoint x="335" y="1160" as="sourcePoint" />
            <mxPoint x="525" y="1160" as="targetPoint" />
          </mxGeometry>
        </mxCell>
        <mxCell id="uQS85lq3L_8QzovgYOfv-161" value="Обслужвание 20%" style="text;html=1;align=center;verticalAlign=middle;whiteSpace=wrap;rounded=0;" vertex="1" parent="1">
          <mxGeometry x="324" y="1180" width="120" height="30" as="geometry" />
        </mxCell>
        <mxCell id="uQS85lq3L_8QzovgYOfv-162" value="19800.00" style="text;html=1;align=center;verticalAlign=middle;whiteSpace=wrap;rounded=0;" vertex="1" parent="1">
          <mxGeometry x="460" y="1180" width="60" height="30" as="geometry" />
        </mxCell>
      </root>
    </mxGraphModel>
  </diagram>
  <diagram id="7vdJaQTV3x1Fq3h9iv-p" name="Waiter-Dashboard">
    <mxGraphModel dx="1050" dy="530" grid="1" gridSize="10" guides="1" tooltips="1" connect="1" arrows="1" fold="1" page="1" pageScale="1" pageWidth="827" pageHeight="1169" math="0" shadow="0">
      <root>
        <mxCell id="0" />
        <mxCell id="1" parent="0" />
        <mxCell id="bBQ3YIdqdPnFTppNYNjX-1" value="" style="rounded=1;whiteSpace=wrap;html=1;" vertex="1" parent="1">
          <mxGeometry x="130" y="80" width="540" height="270" as="geometry" />
        </mxCell>
        <mxCell id="bBQ3YIdqdPnFTppNYNjX-2" value="&lt;font style=&quot;font-size: 15px;&quot;&gt;Categories&lt;/font&gt;" style="text;html=1;align=center;verticalAlign=middle;whiteSpace=wrap;rounded=0;" vertex="1" parent="1">
          <mxGeometry x="150" y="130" width="60" height="30" as="geometry" />
        </mxCell>
        <mxCell id="bBQ3YIdqdPnFTppNYNjX-3" value="Закуски" style="text;html=1;align=center;verticalAlign=middle;whiteSpace=wrap;rounded=0;" vertex="1" parent="1">
          <mxGeometry x="150" y="150" width="60" height="30" as="geometry" />
        </mxCell>
        <mxCell id="bBQ3YIdqdPnFTppNYNjX-5" value="Салаты&lt;div&gt;&lt;br&gt;&lt;/div&gt;" style="text;html=1;align=center;verticalAlign=middle;whiteSpace=wrap;rounded=0;" vertex="1" parent="1">
          <mxGeometry x="150" y="180" width="60" height="30" as="geometry" />
        </mxCell>
        <mxCell id="bBQ3YIdqdPnFTppNYNjX-6" value="Супы" style="text;html=1;align=center;verticalAlign=middle;whiteSpace=wrap;rounded=0;" vertex="1" parent="1">
          <mxGeometry x="150" y="200" width="60" height="30" as="geometry" />
        </mxCell>
        <mxCell id="bBQ3YIdqdPnFTppNYNjX-7" value="Главные блюда" style="text;html=1;align=center;verticalAlign=middle;whiteSpace=wrap;rounded=0;" vertex="1" parent="1">
          <mxGeometry x="150" y="230" width="60" height="30" as="geometry" />
        </mxCell>
        <mxCell id="bBQ3YIdqdPnFTppNYNjX-9" value="Шашлыки" style="text;html=1;align=center;verticalAlign=middle;whiteSpace=wrap;rounded=0;" vertex="1" parent="1">
          <mxGeometry x="150" y="260" width="60" height="30" as="geometry" />
        </mxCell>
        <mxCell id="bBQ3YIdqdPnFTppNYNjX-11" value="Хлеб" style="text;html=1;align=center;verticalAlign=middle;whiteSpace=wrap;rounded=0;" vertex="1" parent="1">
          <mxGeometry x="150" y="280" width="60" height="30" as="geometry" />
        </mxCell>
        <mxCell id="bBQ3YIdqdPnFTppNYNjX-12" value="&lt;font style=&quot;font-size: 13px;&quot;&gt;Напытки&lt;/font&gt;" style="text;html=1;align=center;verticalAlign=middle;whiteSpace=wrap;rounded=0;" vertex="1" parent="1">
          <mxGeometry x="150" y="310" width="60" height="20" as="geometry" />
        </mxCell>
        <mxCell id="bBQ3YIdqdPnFTppNYNjX-13" value="" style="rounded=1;whiteSpace=wrap;html=1;" vertex="1" parent="1">
          <mxGeometry x="250" y="140" width="60" height="30" as="geometry" />
        </mxCell>
        <mxCell id="bBQ3YIdqdPnFTppNYNjX-14" value="" style="rounded=1;whiteSpace=wrap;html=1;" vertex="1" parent="1">
          <mxGeometry x="325" y="190" width="60" height="30" as="geometry" />
        </mxCell>
        <mxCell id="bBQ3YIdqdPnFTppNYNjX-15" value="" style="rounded=1;whiteSpace=wrap;html=1;" vertex="1" parent="1">
          <mxGeometry x="400" y="190" width="60" height="30" as="geometry" />
        </mxCell>
        <mxCell id="bBQ3YIdqdPnFTppNYNjX-16" value="" style="rounded=1;whiteSpace=wrap;html=1;" vertex="1" parent="1">
          <mxGeometry x="480" y="190" width="60" height="30" as="geometry" />
        </mxCell>
        <mxCell id="bBQ3YIdqdPnFTppNYNjX-17" value="" style="rounded=1;whiteSpace=wrap;html=1;" vertex="1" parent="1">
          <mxGeometry x="480" y="140" width="60" height="30" as="geometry" />
        </mxCell>
        <mxCell id="bBQ3YIdqdPnFTppNYNjX-18" value="" style="rounded=1;whiteSpace=wrap;html=1;" vertex="1" parent="1">
          <mxGeometry x="400" y="140" width="60" height="30" as="geometry" />
        </mxCell>
        <mxCell id="bBQ3YIdqdPnFTppNYNjX-19" value="" style="rounded=1;whiteSpace=wrap;html=1;" vertex="1" parent="1">
          <mxGeometry x="325" y="140" width="60" height="30" as="geometry" />
        </mxCell>
        <mxCell id="bBQ3YIdqdPnFTppNYNjX-22" value="" style="rounded=1;whiteSpace=wrap;html=1;" vertex="1" parent="1">
          <mxGeometry x="250" y="190" width="60" height="30" as="geometry" />
        </mxCell>
        <mxCell id="bBQ3YIdqdPnFTppNYNjX-23" value="" style="rounded=1;whiteSpace=wrap;html=1;" vertex="1" parent="1">
          <mxGeometry x="325" y="230" width="60" height="30" as="geometry" />
        </mxCell>
        <mxCell id="bBQ3YIdqdPnFTppNYNjX-24" value="" style="rounded=1;whiteSpace=wrap;html=1;" vertex="1" parent="1">
          <mxGeometry x="480" y="230" width="60" height="30" as="geometry" />
        </mxCell>
        <mxCell id="bBQ3YIdqdPnFTppNYNjX-25" value="" style="rounded=1;whiteSpace=wrap;html=1;" vertex="1" parent="1">
          <mxGeometry x="400" y="230" width="60" height="30" as="geometry" />
        </mxCell>
        <mxCell id="bBQ3YIdqdPnFTppNYNjX-26" value="" style="rounded=1;whiteSpace=wrap;html=1;" vertex="1" parent="1">
          <mxGeometry x="250" y="230" width="60" height="30" as="geometry" />
        </mxCell>
        <mxCell id="bBQ3YIdqdPnFTppNYNjX-30" value="" style="html=1;verticalLabelPosition=bottom;align=center;labelBackgroundColor=#ffffff;verticalAlign=top;strokeWidth=2;strokeColor=#0080F0;shadow=0;dashed=0;shape=mxgraph.ios7.icons.shopping_cart;" vertex="1" parent="1">
          <mxGeometry x="590" y="104.5" width="30" height="25.5" as="geometry" />
        </mxCell>
        <mxCell id="bBQ3YIdqdPnFTppNYNjX-31" value="" style="endArrow=none;dashed=1;html=1;rounded=0;" edge="1" parent="1">
          <mxGeometry width="50" height="50" relative="1" as="geometry">
            <mxPoint x="570" y="330.7999755859375" as="sourcePoint" />
            <mxPoint x="572" y="99.19999999999999" as="targetPoint" />
          </mxGeometry>
        </mxCell>
        <mxCell id="bBQ3YIdqdPnFTppNYNjX-33" value="Logout" style="rounded=1;whiteSpace=wrap;html=1;fillColor=#e51400;strokeColor=#B20000;fontColor=#ffffff;" vertex="1" parent="1">
          <mxGeometry x="480" y="90" width="58" height="30" as="geometry" />
        </mxCell>
        <mxCell id="bBQ3YIdqdPnFTppNYNjX-35" value="" style="shape=mxgraph.signs.food.bar;html=1;pointerEvents=1;fillColor=#000000;strokeColor=none;verticalLabelPosition=bottom;verticalAlign=top;align=center;" vertex="1" parent="1">
          <mxGeometry x="210" y="315" width="20" height="15" as="geometry" />
        </mxCell>
        <mxCell id="bBQ3YIdqdPnFTppNYNjX-39" value="Logo" style="rounded=1;whiteSpace=wrap;html=1;fillColor=#008a00;strokeColor=#005700;fontColor=#ffffff;" vertex="1" parent="1">
          <mxGeometry x="150" y="90" width="60" height="25" as="geometry" />
        </mxCell>
        <mxCell id="bBQ3YIdqdPnFTppNYNjX-40" value="Закрыт" style="rounded=1;whiteSpace=wrap;html=1;fillColor=#6a00ff;fontColor=#ffffff;strokeColor=#3700CC;" vertex="1" parent="1">
          <mxGeometry x="590" y="270" width="60" height="30" as="geometry" />
        </mxCell>
        <mxCell id="bBQ3YIdqdPnFTppNYNjX-41" value="&lt;font style=&quot;font-size: 13px;&quot;&gt;Стул №&lt;/font&gt;" style="rounded=1;whiteSpace=wrap;html=1;fillColor=#d5e8d4;strokeColor=#82b366;" vertex="1" parent="1">
          <mxGeometry x="325" y="85" width="80" height="40" as="geometry" />
        </mxCell>
      </root>
    </mxGraphModel>
  </diagram>
</mxfile>
